<?xml version="1.0" standalone="no"?>
<!DOCTYPE svg PUBLIC "-//W3C//DTD SVG 20010904//EN"
 "http://www.w3.org/TR/2001/REC-SVG-20010904/DTD/svg10.dtd">
<svg version="1.0" xmlns="http://www.w3.org/2000/svg"
 width="236.000000pt" height="226.000000pt" viewBox="0 0 236.000000 226.000000"
 preserveAspectRatio="xMidYMid meet">
<metadata>
Created by potrace 1.10, written by Peter Selinger 2001-2011
</metadata>
<g transform="translate(0.000000,226.000000) scale(0.100000,-0.100000)"
fill="#000000" stroke="none">
<path d="M1053 2190 c-48 -7 -67 -20 -88 -63 -43 -85 20 -187 115 -187 22 0
43 11 72 39 39 35 42 43 42 90 0 40 -5 56 -25 77 -36 39 -68 51 -116 44z m88
-48 c26 -24 32 -36 32 -72 0 -36 -6 -48 -32 -72 -85 -76 -212 21 -157 121 31
56 107 67 157 23z"/>
<path d="M1020 2140 c-27 -27 -25 -69 6 -116 21 -32 22 -35 4 -18 -12 11 -28
38 -35 60 -13 35 -14 36 -15 12 0 -35 18 -75 39 -83 35 -14 76 -14 98 0 30 20
31 84 2 128 l-21 32 26 -30 c18 -21 26 -42 27 -70 1 -36 2 -37 9 -14 18 62
-13 108 -79 115 -31 4 -45 0 -61 -16z m74 -29 c23 -25 19 -94 -6 -99 -21 -4
-56 30 -64 63 -12 48 36 73 70 36z"/>
<path d="M1256 2191 c-29 -6 -30 -7 -32 -75 -1 -43 -9 -81 -20 -102 -16 -30
-17 -36 -4 -48 8 -8 43 -17 76 -21 59 -6 63 -5 98 25 36 32 49 81 26 95 -6 3
-7 23 -4 44 4 28 2 40 -11 51 -16 13 -84 41 -95 39 -3 -1 -18 -4 -34 -8z m77
-32 c43 -12 56 -32 38 -61 -10 -16 -9 -23 4 -38 22 -24 16 -48 -16 -72 -22
-16 -35 -18 -87 -12 -60 6 -61 7 -46 29 8 13 15 51 17 93 2 69 3 72 27 72 14
0 42 -5 63 -11z"/>
<path d="M1255 2093 c-4 -38 -12 -76 -17 -87 -8 -14 -7 -17 3 -14 14 5 41 168
28 168 -4 0 -10 -30 -14 -67z"/>
<path d="M1286 2152 c-3 -3 -6 -18 -6 -34 0 -25 3 -28 36 -28 32 0 35 2 32 27
-2 19 -10 29 -30 34 -15 4 -29 4 -32 1z"/>
<path d="M1362 2120 c0 -14 2 -19 5 -12 2 6 2 18 0 25 -3 6 -5 1 -5 -13z"/>
<path d="M1268 2036 c-3 -44 -2 -45 32 -51 26 -5 37 -3 47 11 16 22 17 46 1
64 -11 12 -10 12 5 0 12 -9 17 -22 14 -37 -2 -12 0 -20 4 -17 14 8 10 40 -6
54 -9 7 -33 14 -54 16 l-39 4 -4 -44z m71 -2 c3 -3 0 -9 -6 -15 -15 -15 -43
-4 -43 16 0 12 6 15 23 9 12 -3 24 -8 26 -10z"/>
<path d="M1467 2153 c-4 -3 -7 -59 -7 -123 0 -90 3 -120 14 -130 19 -15 28
-10 125 82 70 66 81 80 72 97 -6 10 -18 21 -26 25 -23 8 -55 -11 -55 -33 0
-17 -38 -61 -53 -61 -14 0 -7 68 8 80 23 19 18 38 -15 55 -31 16 -53 19 -63 8z
m58 -46 c-11 -6 -15 -27 -15 -85 l0 -76 55 54 c31 30 53 60 50 67 -5 14 5 16
28 8 9 -4 -8 -27 -57 -75 -39 -38 -75 -65 -80 -60 -4 4 -7 47 -5 94 2 47 0 86
-4 86 -5 0 -7 -45 -5 -100 2 -55 0 -100 -4 -100 -5 0 -8 49 -8 109 l0 109 30
-11 c23 -9 27 -13 15 -20z"/>
<path d="M682 2080 c-70 -33 -85 -55 -56 -79 17 -14 64 -113 64 -134 0 -9 -65
23 -116 58 -61 42 -104 29 -104 -29 0 -17 7 -44 15 -60 8 -15 15 -39 15 -52 0
-12 5 -26 10 -29 6 -3 10 -17 10 -29 0 -13 6 -29 14 -35 11 -9 18 -6 34 14 11
14 18 33 16 43 -7 25 32 48 53 30 13 -10 20 -7 46 22 16 18 41 35 54 36 47 5
68 43 41 74 -7 7 5 3 26 -9 39 -22 40 -22 65 -3 37 28 34 55 -9 68 -32 11 -35
14 -32 48 3 29 -2 42 -26 66 -17 16 -36 30 -44 30 -7 0 -41 -13 -76 -30z m108
-20 c11 -11 20 -28 19 -37 0 -12 -4 -8 -11 10 -5 15 -14 27 -18 27 -5 0 -2
-16 5 -34 11 -26 12 -37 3 -42 -7 -4 2 -14 23 -25 19 -10 27 -18 20 -19 -12 0
-12 -3 -3 -12 10 -10 15 -10 21 1 5 7 15 11 22 9 10 -3 8 -8 -8 -16 -17 -10
-29 -7 -65 13 -53 30 -79 21 -60 -19 6 -14 16 -26 22 -26 5 0 10 -4 10 -10 0
-25 -20 -5 -46 46 -16 31 -30 51 -32 46 -2 -6 8 -33 23 -61 14 -28 22 -51 18
-51 -5 0 -21 32 -38 71 -16 39 -38 77 -47 84 -16 11 -12 15 39 38 70 32 77 33
103 7z m-187 -179 c83 -45 86 -49 69 -64 -10 -10 -22 -17 -27 -17 -5 0 0 6 11
14 10 8 17 16 14 19 -21 17 -163 88 -167 83 -4 -3 -4 -7 -2 -8 2 -2 35 -19 72
-38 70 -36 91 -51 60 -44 -10 2 -34 -10 -53 -26 -30 -26 -33 -33 -23 -49 10
-15 9 -22 -2 -31 -12 -10 -15 -9 -15 8 0 12 -11 57 -25 102 -24 73 -26 101 -7
100 4 -1 46 -22 95 -49z"/>
<path d="M699 2046 l-46 -22 20 -24 20 -25 -7 25 c-5 19 -2 17 11 -8 14 -28
22 -33 43 -29 14 3 34 -1 44 -9 11 -8 25 -14 30 -14 6 1 0 7 -14 15 -19 10
-24 20 -22 43 2 17 -3 36 -12 45 -12 12 -13 17 -3 20 8 4 7 5 -3 5 -8 0 -36
-10 -61 -22z m51 -36 c0 -21 -24 -28 -35 -10 -8 14 3 30 21 30 8 0 14 -9 14
-20z"/>
<path d="M513 1876 c3 -8 11 -34 17 -57 l11 -41 30 28 c16 15 29 31 29 34 0 7
-73 50 -85 50 -4 0 -5 -6 -2 -14z"/>
<path d="M1704 2033 c-13 -44 -66 -121 -86 -127 -10 -2 -21 -12 -25 -22 -8
-21 59 -84 119 -112 21 -9 40 -25 44 -36 3 -10 31 -44 63 -76 31 -31 64 -69
75 -84 l18 -28 31 34 c39 43 44 26 16 -52 -19 -54 -20 -63 -8 -76 13 -13 25
-9 94 30 43 25 81 43 85 41 13 -8 32 23 28 46 -5 37 -32 46 -63 21 -16 -12
-29 -21 -31 -19 -2 2 4 26 13 54 18 55 12 100 -14 110 -10 4 -22 -1 -32 -14
-9 -10 -37 -31 -62 -46 l-46 -27 1 22 c1 17 -7 25 -34 34 l-35 12 77 12 c115
19 120 35 36 126 -47 51 -65 54 -98 19 -21 -22 -22 -29 -12 -45 15 -24 15 -33
2 -25 -5 3 -18 1 -29 -5 -15 -7 -23 -6 -35 6 -9 8 -16 21 -16 27 1 17 25 47
38 47 15 0 42 40 42 62 0 19 -114 108 -137 108 -8 0 -16 -8 -19 -17z m106 -75
c0 -5 4 -7 9 -3 13 8 22 -10 15 -29 -8 -22 -24 -20 -24 2 0 10 -12 29 -26 43
-25 24 -26 24 -41 4 -24 -32 -34 -55 -25 -55 12 0 52 -39 52 -50 0 -15 -20
-12 -20 3 0 6 -11 20 -24 29 -24 17 -25 17 -45 -14 -18 -30 -19 -34 -4 -50 9
-10 22 -18 30 -18 7 0 13 -4 13 -10 0 -5 8 -10 18 -10 14 0 15 2 2 10 -12 8
-10 10 9 10 20 0 21 -2 11 -15 -18 -22 -29 -19 -94 27 -49 35 -56 43 -40 49
11 3 36 32 58 63 21 31 40 56 43 56 6 0 -6 -19 -54 -82 -23 -32 -37 -58 -30
-58 6 0 34 32 60 70 39 57 45 71 33 76 -9 3 -16 10 -16 16 0 5 20 -5 45 -23
25 -18 45 -36 45 -41z m-39 -21 c-1 -12 -15 -9 -19 4 -3 6 1 10 8 8 6 -3 11
-8 11 -12z m19 -41 c0 -3 -4 -8 -10 -11 -5 -3 -10 -1 -10 4 0 6 5 11 10 11 6
0 10 -2 10 -4z m-60 -47 c0 -5 -7 -6 -15 -3 -8 4 -15 13 -15 21 0 13 3 13 15
3 8 -7 15 -16 15 -21z m187 -91 c-50 -10 -96 -16 -102 -15 -5 2 30 11 79 20
49 10 92 20 95 23 3 4 -7 4 -24 1 -16 -3 -65 -11 -108 -18 l-77 -13 37 -38
c27 -27 45 -38 67 -38 l30 0 -24 -17 c-23 -16 -24 -16 -72 36 -26 29 -48 56
-48 60 0 4 39 13 88 20 117 18 116 18 89 50 -18 24 -26 27 -50 20 -24 -7 -27
-6 -17 6 6 8 19 11 27 8 12 -5 14 -2 9 8 -4 8 15 -11 43 -41 l51 -55 -93 -17z
m128 -153 c-15 -42 -25 -78 -22 -81 6 -6 82 40 92 56 9 14 25 2 24 -18 0 -14
-2 -13 -9 3 -5 11 -9 17 -9 13 -1 -5 0 -10 2 -13 3 -7 -155 -96 -161 -90 -3 3
0 5 7 5 7 0 10 4 7 9 -6 9 44 154 51 147 2 -2 -8 -34 -22 -71 -28 -75 -30 -84
-14 -68 13 13 69 171 68 193 0 8 -6 3 -13 -13 -7 -15 -15 -25 -18 -22 -9 10
-85 -32 -101 -56 -9 -13 -17 -16 -22 -10 -3 6 0 11 7 12 7 0 4 4 -7 9 -18 8
-18 9 -2 9 31 1 137 65 143 86 7 19 7 19 17 -2 8 -17 3 -40 -18 -98z"/>
<path d="M296 1729 c-25 -28 -46 -60 -46 -70 0 -12 21 -32 60 -56 33 -21 60
-40 60 -43 0 -3 -9 -11 -19 -17 -16 -10 -25 -6 -61 24 -56 49 -77 39 -114 -56
-30 -76 -26 -101 15 -101 10 0 37 -7 59 -16 33 -13 38 -19 29 -30 -9 -11 -9
-21 0 -40 14 -32 15 -67 0 -59 -6 4 -23 9 -37 10 -30 4 -46 7 -80 19 -31 10
-52 -9 -52 -48 0 -36 16 -57 36 -49 19 7 153 -17 160 -28 9 -16 34 11 34 37 0
12 5 26 11 29 6 4 9 31 8 60 -1 30 2 60 8 67 6 7 19 33 29 58 9 25 21 49 26
55 4 5 8 14 8 21 0 7 16 36 35 65 41 63 52 108 35 150 -20 46 -55 69 -110 69
-45 0 -51 -3 -94 -51z m148 16 c30 -20 50 -67 41 -97 -9 -30 -58 -108 -67
-108 -5 0 -8 6 -8 13 0 7 -31 33 -69 58 -39 24 -70 46 -70 49 -1 3 17 26 40
53 34 39 46 47 75 47 19 0 45 -7 58 -15z m-178 -187 c5 -8 0 -9 -14 -6 -12 4
-20 2 -16 -3 3 -5 1 -9 -4 -9 -8 0 -45 -80 -39 -86 1 -1 16 -5 32 -9 l30 -6
-25 16 c-18 12 -19 14 -5 10 51 -18 53 -17 60 14 3 17 4 35 0 41 -9 15 9 12
31 -6 17 -14 17 -15 1 -10 -10 3 -16 2 -13 -2 2 -4 -2 -18 -9 -32 -13 -24 -12
-26 23 -42 34 -16 35 -17 7 -11 -33 6 -32 2 3 -16 20 -11 23 -9 33 16 16 40
20 103 7 103 -6 0 -8 3 -5 7 4 3 16 -2 26 -11 15 -13 17 -23 10 -35 -5 -9 -18
-38 -30 -66 -12 -31 -23 -45 -28 -37 -9 15 -123 62 -150 62 -18 0 -18 3 7 65
18 46 31 65 43 65 10 0 21 -5 25 -12z m-6 -58 c0 -11 -4 -20 -10 -20 -5 0 -10
9 -10 20 0 11 5 20 10 20 6 0 10 -9 10 -20z m81 -43 c-16 -16 -26 0 -10 19 9
11 15 12 17 4 2 -6 -1 -17 -7 -23z m-17 -120 c16 -12 16 -19 5 -80 -9 -46 -16
-64 -23 -58 -16 13 -143 34 -161 27 -11 -4 -15 1 -15 18 0 28 10 39 24 27 15
-12 144 -33 156 -26 15 9 12 58 -6 83 -17 24 -7 29 20 9z"/>
<path d="M383 1740 c22 -4 50 -19 65 -35 l27 -28 -33 26 c-47 38 -89 36 -130
-6 l-32 -33 74 -51 c41 -29 77 -49 80 -46 3 4 -23 26 -58 49 -36 24 -67 48
-71 54 -3 6 23 -10 58 -35 36 -25 69 -45 74 -45 19 0 38 60 34 107 -2 27 -45
53 -85 52 l-41 -1 38 -8z m39 -57 c16 -15 26 -63 12 -63 -12 0 -94 61 -94 70
0 16 62 11 82 -7z"/>
<path d="M260 1430 c8 -5 22 -10 30 -10 13 0 13 1 0 10 -8 5 -22 10 -30 10
-13 0 -13 -1 0 -10z"/>
<path d="M140 1251 c0 -6 10 -11 23 -11 12 0 50 -6 85 -14 34 -7 62 -9 62 -5
0 4 -30 12 -68 18 -37 7 -75 14 -84 17 -10 3 -18 1 -18 -5z"/>
<path d="M733 1513 c-7 -19 29 -53 58 -53 19 0 19 -12 17 -347 l-3 -348 -35
-11 c-35 -12 -51 -36 -30 -49 16 -10 371 -8 382 3 12 12 -1 42 -18 42 -8 0
-26 7 -39 16 -25 16 -25 19 -25 150 0 127 1 134 20 134 10 0 24 -8 29 -19 6
-10 34 -48 63 -84 29 -36 80 -100 113 -143 33 -42 66 -83 73 -91 18 -17 277
-19 288 -2 4 7 -24 41 -70 83 -66 61 -336 389 -336 407 0 4 47 52 104 106 97
93 125 112 246 167 14 7 25 20 25 31 0 19 -8 20 -140 20 -124 0 -140 -2 -143
-17 -2 -11 8 -25 28 -36 l31 -19 -156 -152 c-86 -83 -160 -151 -166 -151 -6 0
-8 57 -7 152 l3 152 31 8 c38 10 57 30 48 52 -5 14 -30 16 -195 16 -167 0
-190 -2 -196 -17z m374 -9 c-3 -3 -83 -6 -177 -6 -94 0 -174 3 -177 6 -4 3 76
6 177 6 101 0 181 -3 177 -6z m453 -5 c-97 -39 -142 -71 -254 -180 l-120 -116
124 -158 c147 -187 211 -258 264 -297 l39 -28 -129 0 c-117 0 -130 2 -141 20
-7 10 -69 91 -139 180 -100 127 -131 160 -150 160 -35 0 -30 12 24 60 26 24
111 106 190 183 104 101 141 144 137 156 -5 13 -4 13 6 4 10 -10 8 -19 -9 -43
-23 -31 -15 -43 9 -14 7 9 36 29 64 46 l50 30 -86 -5 c-48 -3 -93 -1 -100 4
-8 5 39 8 116 8 98 0 124 -3 105 -10z m-721 -26 c10 -17 10 -17 11 0 0 15 10
17 74 17 59 0 75 -3 80 -16 6 -15 9 -15 29 2 22 19 22 19 5 -1 -16 -19 -17
-56 -18 -373 -1 -193 1 -356 5 -362 3 -5 12 -10 18 -10 7 0 4 5 -5 11 -10 5
-18 15 -18 22 0 8 3 8 9 -1 4 -7 26 -20 47 -27 36 -13 24 -14 -146 -14 -169 1
-198 7 -107 22 21 4 47 27 30 27 -6 0 -13 -5 -15 -10 -1 -6 -2 149 0 344 2
314 1 356 -13 370 -9 9 -12 16 -6 16 5 0 15 -8 20 -17z"/>
<path d="M1263 1308 c-115 -116 -113 -104 -35 -196 63 -75 65 -56 2 23 l-53
67 104 104 c57 57 99 104 94 104 -6 0 -56 -46 -112 -102z"/>
<path d="M1070 1125 c-29 -30 -31 -35 -14 -35 11 0 26 -6 33 -12 10 -11 11 -8
6 13 -4 17 -1 30 9 38 17 14 21 31 8 31 -4 0 -23 -16 -42 -35z"/>
<path d="M1120 1047 c0 -11 233 -307 238 -302 4 4 -29 54 -53 82 -5 7 -37 47
-70 89 -80 101 -114 141 -115 131z"/>
<path d="M1300 1025 c7 -9 15 -13 17 -11 7 7 -7 26 -19 26 -6 0 -6 -6 2 -15z"/>
<path d="M1330 994 c0 -9 109 -144 116 -144 8 0 -5 19 -60 88 -49 61 -56 68
-56 56z"/>
<path d="M1472 808 c14 -18 41 -42 59 -52 32 -18 30 -16 -16 32 -55 58 -81 70
-43 20z"/>
<path d="M854 1110 c0 -184 2 -260 3 -167 2 92 2 242 0 335 -1 92 -3 16 -3
-168z"/>
<path d="M2021 1445 c-24 -27 -31 -45 -31 -76 0 -85 49 -139 126 -139 29 0 44
8 75 39 36 36 39 43 39 94 0 50 -3 57 -35 86 -30 26 -44 31 -89 31 -49 0 -57
-3 -85 -35z m123 3 c-5 -8 -2 -9 9 -5 25 9 57 -38 57 -85 0 -102 -139 -138
-185 -48 -38 74 5 150 85 150 29 0 39 -3 34 -12z"/>
<path d="M2044 1425 c-21 -21 -24 -31 -19 -62 12 -71 21 -80 71 -73 24 4 57
18 72 31 l27 23 -27 -28 c-15 -17 -42 -32 -65 -36 l-38 -8 41 -1 c57 -1 87 24
89 75 2 52 -9 71 -52 89 -50 21 -70 19 -99 -10z m56 4 c-14 -6 -34 -18 -45
-27 -12 -9 -8 -5 7 11 16 15 36 27 46 26 12 0 9 -3 -8 -10z m51 -29 c42 -23 3
-80 -56 -80 -32 0 -35 2 -35 30 0 25 6 34 33 45 39 17 35 17 58 5z"/>
<path d="M2039 1203 c-8 -9 -14 -39 -14 -70 0 -48 4 -58 28 -79 34 -29 57 -30
88 -5 21 17 24 17 51 2 28 -15 30 -15 49 8 28 35 26 111 -4 139 -27 26 -73 29
-97 7 -15 -14 -18 -14 -30 0 -16 20 -54 19 -71 -2z m56 -12 c3 -6 -3 -15 -14
-21 -21 -11 -37 2 -26 20 8 13 32 13 40 1z m127 -8 c11 -10 18 -30 18 -52 0
-49 -12 -65 -40 -56 l-23 7 28 22 c34 27 31 61 -4 61 -25 0 -31 -8 -51 -62
-20 -52 -76 -57 -98 -7 -15 31 -16 67 -2 59 6 -4 10 -12 9 -18 -5 -38 2 -48
28 -45 20 2 29 12 40 42 7 21 18 45 24 52 16 19 49 17 71 -3z m-130 -55 c-7
-7 -12 -8 -12 -2 0 14 12 26 19 19 2 -3 -1 -11 -7 -17z m108 8 c0 -3 -4 -8
-10 -11 -5 -3 -10 -1 -10 4 0 6 5 11 10 11 6 0 10 -2 10 -4z"/>
<path d="M2060 1180 c0 -5 7 -7 15 -4 8 4 15 8 15 10 0 2 -7 4 -15 4 -8 0 -15
-4 -15 -10z"/>
<path d="M2146 1158 c-7 -18 -16 -41 -19 -51 -4 -9 -17 -22 -29 -27 -23 -10
-23 -10 2 -7 23 2 30 11 60 77 4 8 18 21 31 27 l24 13 -28 0 c-22 0 -31 -7
-41 -32z"/>
<path d="M2210 1095 c-8 -9 -8 -15 -2 -15 12 0 26 19 19 26 -2 2 -10 -2 -17
-11z"/>
<path d="M143 1148 c-48 -53 -56 -111 -23 -165 27 -45 58 -62 109 -59 36 2 50
9 77 39 29 32 34 44 34 88 0 45 -4 55 -34 85 -30 30 -40 34 -88 34 -44 0 -59
-4 -75 -22z m148 -27 c23 -23 29 -38 29 -71 0 -117 -167 -139 -196 -26 -25
100 94 169 167 97z"/>
<path d="M160 1120 c-12 -12 -17 -26 -13 -36 4 -11 2 -15 -4 -11 -17 11 -6
-66 11 -79 9 -6 13 -13 11 -16 -13 -13 86 11 109 26 14 9 26 14 26 11 0 -11
-54 -39 -88 -46 l-37 -7 41 -1 c58 -1 84 22 90 81 4 38 2 48 -15 60 -12 8 -19
17 -16 20 10 9 -80 -8 -102 -21 -13 -6 -23 -9 -23 -7 0 9 44 30 80 37 l35 7
-42 1 c-31 1 -49 -5 -63 -19z m118 -60 c2 -21 -4 -29 -33 -43 -49 -23 -63 -21
-77 9 -11 23 -10 29 12 46 16 13 35 18 59 16 30 -3 36 -7 39 -28z"/>
<path d="M2164 1005 c-4 -8 0 -23 7 -32 12 -14 11 -15 -6 -10 -11 4 -37 9 -58
11 -21 3 -45 10 -53 16 -23 20 -41 4 -48 -40 -7 -43 7 -76 26 -64 5 3 34 3 64
-1 50 -6 53 -8 43 -26 -11 -22 -1 -42 31 -59 29 -15 51 11 65 80 18 85 18 105
-1 124 -20 20 -63 21 -70 1z m55 -14 c11 -7 11 -20 1 -79 -17 -91 -21 -98 -51
-81 l-24 13 25 6 c16 4 25 13 25 25 0 15 -12 22 -55 32 -30 8 -70 12 -87 10
-18 -2 -33 1 -33 5 0 15 94 6 171 -18 13 -4 18 4 21 35 2 22 1 38 -2 36 -3 -2
-11 3 -18 11 -10 11 -10 14 0 14 7 0 19 -4 27 -9z m-88 -51 c41 -7 69 -15 63
-17 -6 -2 -41 3 -79 11 -38 8 -73 12 -77 10 -4 -3 -8 4 -8 16 0 18 2 19 14 8
8 -8 47 -20 87 -28z"/>
<path d="M285 895 c-16 -30 -34 -55 -40 -55 -7 0 -29 12 -50 26 -47 32 -70 26
-61 -18 8 -38 23 -58 41 -52 7 3 16 1 19 -4 3 -6 -1 -12 -9 -16 -22 -8 -19
-69 4 -90 16 -14 20 -15 30 -2 15 18 133 58 157 54 29 -5 38 24 20 66 -13 30
-20 37 -36 33 -21 -5 -28 7 -10 18 14 9 13 68 -2 83 -22 22 -35 13 -63 -43z
m55 4 c0 -11 -11 -37 -25 -57 -35 -51 -33 -64 8 -50 17 6 35 15 38 21 4 5 11
-5 17 -21 9 -25 8 -30 -3 -25 -20 7 -147 -36 -162 -55 -7 -9 -13 -11 -13 -5 0
18 22 30 98 54 39 13 72 26 72 30 0 4 -32 -3 -72 -17 -72 -24 -123 -33 -58
-10 l34 13 -47 27 c-26 15 -52 24 -58 20 -9 -5 -10 -2 -6 9 3 10 2 17 -3 17
-6 0 -10 5 -10 12 0 6 10 2 23 -9 12 -11 36 -28 53 -36 l30 -16 32 54 c18 29
32 58 32 65 0 6 5 8 10 5 6 -3 10 -15 10 -26z m-143 -161 c-3 -8 -6 -5 -6 6
-1 11 2 17 5 13 3 -3 4 -12 1 -19z"/>
<path d="M293 848 c-17 -29 -29 -57 -25 -62 3 -5 9 1 14 13 4 13 17 36 29 52
11 16 19 34 17 39 -2 6 -17 -13 -35 -42z"/>
<path d="M1970 821 c-14 -27 -13 -56 3 -70 8 -6 16 -9 19 -6 6 7 129 -44 149
-61 19 -17 28 -9 49 45 12 30 12 35 -5 47 -10 7 -21 11 -25 9 -4 -3 -40 9 -80
25 -86 35 -96 36 -110 11z m195 -65 c11 4 13 2 9 -9 -4 -12 -19 -9 -86 20 -45
18 -86 32 -91 30 -5 -1 28 -19 73 -37 46 -19 85 -42 87 -50 3 -11 2 -12 -4 -3
-12 17 -153 74 -164 67 -10 -6 -12 7 -3 29 4 12 19 9 85 -19 43 -18 86 -31 94
-28z"/>
<path d="M382 518 c-18 -18 -15 -32 16 -61 52 -50 88 -24 49 35 -25 36 -46 45
-65 26z m63 -67 c-8 -7 -35 21 -29 30 3 5 -2 9 -11 9 -10 0 -13 5 -9 12 5 7
15 2 30 -17 13 -16 21 -31 19 -34z"/>
<path d="M1918 496 c-33 -41 -34 -48 -10 -69 18 -16 20 -15 52 24 26 32 31 45
23 58 -17 27 -37 23 -65 -13z m30 -25 c-13 -16 -26 -26 -31 -24 -4 2 3 17 15
32 13 16 26 26 31 24 4 -2 -3 -17 -15 -32z"/>
<path d="M587 463 c-2 -5 -7 -20 -10 -34 -4 -14 -30 -50 -59 -79 -59 -60 -59
-65 17 -120 66 -47 111 -47 160 0 41 40 46 26 10 -30 -31 -49 -31 -56 0 -76
30 -19 55 -6 55 30 0 12 6 30 13 40 12 16 15 12 32 -43 32 -108 58 -107 101 3
16 42 32 76 36 76 10 0 10 3 -2 -61 -5 -30 -15 -64 -22 -77 -17 -32 4 -49 75
-62 71 -14 93 -7 113 31 14 28 14 33 0 54 -12 19 -13 30 -5 54 14 40 24 39 39
-1 19 -52 64 -138 78 -150 21 -18 56 27 87 115 15 43 31 75 36 70 4 -4 16 -39
27 -77 10 -39 26 -75 35 -80 36 -23 75 36 42 64 -8 7 -15 21 -15 32 0 16 9 13
61 -23 55 -37 63 -40 77 -26 14 14 13 24 -8 97 -13 44 -20 83 -17 86 9 9 57
-92 57 -119 0 -39 23 -51 59 -33 16 9 32 20 36 25 3 5 -11 39 -31 76 -20 36
-33 69 -29 73 4 4 10 1 12 -6 3 -7 16 -26 29 -41 13 -16 24 -35 24 -42 0 -7 7
-20 16 -30 16 -17 18 -17 51 8 23 18 33 32 30 45 -4 15 -1 17 20 12 17 -5 31
0 49 17 13 12 24 26 24 30 0 15 -33 40 -46 35 -8 -3 -31 3 -52 12 -39 18 -41
25 -20 69 6 12 8 29 5 37 -15 37 -77 3 -77 -42 0 -24 -10 -28 -27 -11 -9 9
-19 7 -40 -7 -15 -10 -39 -24 -53 -31 -14 -7 -32 -17 -40 -22 -8 -5 -27 -12
-41 -15 -32 -7 -43 -30 -28 -58 17 -32 5 -31 -49 2 -44 28 -53 30 -74 19 -12
-7 -36 -15 -53 -19 -25 -5 -30 -11 -30 -35 -1 -36 -15 -85 -24 -85 -12 0 -31
64 -25 87 6 23 -29 52 -41 33 -9 -15 -62 -12 -95 5 -16 8 -51 17 -77 19 -26 2
-56 6 -65 10 -31 14 -53 2 -56 -29 -6 -52 -18 -48 -41 14 -28 77 -68 94 -91
37 -8 -19 -9 -19 -9 7 -1 41 -16 62 -72 107 -49 39 -73 48 -82 33z m119 -98
c22 -31 17 -72 -14 -106 -39 -44 -59 -30 -27 18 14 20 25 46 25 58 0 24 -27
62 -47 67 -6 2 -32 -26 -58 -62 l-46 -65 22 -17 c12 -10 32 -18 45 -18 12 0
26 -5 30 -12 14 -21 -55 1 -103 33 -40 28 -44 33 -27 39 10 4 36 33 58 64 21
31 40 56 43 56 6 0 -6 -19 -54 -82 -23 -32 -37 -58 -30 -58 6 0 34 32 60 70
39 57 45 71 33 76 -9 3 -16 10 -16 16 0 12 88 -51 106 -77z m1037 34 c-7 -23
-13 -49 -11 -57 3 -16 76 -42 118 -42 22 0 23 -1 8 -16 -14 -14 -23 -15 -62
-5 -74 18 -80 16 -59 -19 9 -16 24 -30 31 -30 9 0 5 -7 -9 -19 -24 -19 -24
-19 -31 0 -11 29 -87 129 -99 129 -15 0 -1 18 23 31 11 6 18 7 15 2 -3 -4 5
-23 18 -41 l23 -34 11 53 c6 28 9 54 6 57 -6 6 14 32 25 32 4 0 1 -19 -7 -41z
m-1083 -60 c0 -46 -16 -69 -50 -69 -37 0 -38 13 -4 62 33 47 54 50 54 7z m935
-9 c-6 -10 61 -151 77 -161 5 -3 -3 -11 -17 -17 -33 -15 -36 -15 -29 2 3 8
-12 49 -33 90 -39 73 -39 75 -19 85 27 13 28 13 21 1z m-799 -8 c6 -4 24 -45
39 -92 l28 -85 18 40 c10 22 18 52 18 68 1 29 2 30 26 21 14 -6 14 -9 2 -23
-8 -9 -27 -48 -42 -88 -15 -40 -31 -71 -34 -68 -4 2 -20 45 -36 96 l-30 92
-22 -49 c-12 -27 -22 -59 -22 -71 -1 -25 -2 -26 -25 -17 -14 5 -14 8 -3 18 17
14 61 124 60 148 -2 19 5 22 23 10z m724 -32 c0 -5 -2 -10 -4 -10 -3 0 -8 5
-11 10 -3 6 -1 10 4 10 6 0 11 -4 11 -10z m13 -83 c9 -34 15 -62 13 -64 -1 -1
-39 22 -85 53 -45 30 -88 53 -94 51 -6 -2 0 -10 13 -19 14 -8 56 -35 95 -59
38 -24 73 -43 77 -41 4 1 8 -2 8 -8 0 -15 -4 -13 -86 40 -42 28 -79 48 -81 46
-7 -7 28 -116 38 -116 5 0 9 -4 9 -10 0 -5 -9 -10 -21 -10 -11 0 -18 4 -15 9
9 14 -33 144 -50 158 -13 10 -13 12 5 18 15 4 42 -8 97 -46 77 -51 77 -51 70
-23 -4 16 -15 45 -25 65 -16 33 -16 36 -1 27 9 -6 24 -38 33 -71z m-496 42
c52 -9 63 -14 63 -31 0 -10 -5 -16 -10 -13 -6 4 -8 10 -6 14 3 4 0 8 -7 9 -7
1 -27 5 -44 8 -30 6 -33 4 -33 -19 0 -14 -3 -33 -7 -43 -6 -15 -1 -16 43 -12
27 3 44 4 38 1 -7 -2 -9 -14 -6 -26 5 -21 4 -21 -15 -4 -28 24 -59 22 -67 -5
-13 -49 -8 -56 38 -59 24 -2 43 -2 41 1 -2 4 5 11 15 18 18 11 19 10 8 -14
-11 -24 -16 -26 -56 -20 -25 3 -50 6 -57 6 -8 0 -7 25 5 95 10 52 14 95 10 95
-4 0 -10 -24 -14 -52 -10 -76 -25 -128 -38 -128 -7 0 -7 4 0 13 14 16 36 143
28 162 -6 18 -9 18 71 4z m154 -23 c-10 -11 -9 -21 4 -46 9 -18 15 -34 12 -36
-2 -2 -12 14 -22 36 -10 22 -22 40 -26 40 -8 0 56 -149 72 -164 14 -15 10 5
-6 34 -8 14 -14 30 -14 35 0 6 8 -5 18 -23 l17 -34 13 44 c7 24 21 60 31 80
16 34 16 37 1 41 -9 3 -4 5 12 6 26 1 27 0 13 -21 -8 -13 -24 -52 -37 -88 -21
-61 -43 -99 -53 -89 -2 2 -24 46 -48 97 -43 90 -44 94 -21 89 13 -2 23 0 23 4
0 5 5 9 11 9 8 0 8 -4 0 -14z m-136 -26 c3 -5 -3 -10 -14 -10 -12 0 -21 5 -21
10 0 6 6 10 14 10 8 0 18 -4 21 -10z m-15 -90 c12 -8 9 -10 -13 -10 -16 0 -26
4 -22 10 8 12 16 12 35 0z"/>
<path d="M701 334 c0 -12 -12 -38 -26 -59 -28 -41 -13 -44 18 -3 12 16 17 36
14 54 -3 19 -5 22 -6 8z"/>
<path d="M1642 353 c10 -23 102 -142 106 -138 7 7 -89 145 -100 145 -6 0 -8
-3 -6 -7z"/>
<path d="M1720 311 c0 -8 11 -11 100 -26 32 -5 32 -4 -7 9 -67 22 -93 27 -93
17z"/>
<path d="M1570 315 c0 -13 75 -155 82 -155 5 0 -10 36 -32 80 -35 70 -50 92
-50 75z"/>
<path d="M783 309 c2 -8 5 -18 8 -24 4 -5 19 -48 34 -95 16 -47 30 -80 32 -73
5 13 -53 183 -67 197 -5 5 -8 3 -7 -5z"/>
</g>
</svg>
